<svg aria-hidden="true" style="width:0;height:0;position:absolute;overflow:hidden" xmlns="http://www.w3.org/2000/svg"><defs><symbol id="icon-email" viewBox="0 0 32 32"><path d="M29.002 4H2.999a3 3 0 0 0-3 3v18a3 3 0 0 0 3 3h26.003a3 3 0 0 0 3-3V7a3 3 0 0 0-3-3zm2 20.555-9.459-9.459 9.459-6.028v15.487zM2.998 5h26.003c1.103 0 2 .897 2 2v.883l-13.768 8.774a2.203 2.203 0 0 1-2.425-.035L.997 7.235V7c0-1.103.897-2 2-2zm-2 3.443 9.593 6.52-9.593 9.593V8.443zM29.002 27H2.999a2.002 2.002 0 0 1-1.838-1.214l10.26-10.26 2.827 1.922a3.199 3.199 0 0 0 3.523.052l2.921-1.861L30.84 25.787a2.002 2.002 0 0 1-1.838 1.214z"/></symbol><symbol id="icon-crown" viewBox="0 0 32 32"><path d="M32 14.38c0-1.851-1.506-3.358-3.358-3.358s-3.358 1.506-3.358 3.358c0 .842.312 1.612.826 2.202l-3.471 3.184-4.427-9.148 2.587-3.039-4.783-5.618-4.783 5.618 2.472 2.904-4.395 9.231-3.422-3.134c.513-.59.825-1.359.825-2.2 0-1.851-1.506-3.358-3.358-3.358S-.003 12.528-.003 14.38a3.363 3.363 0 0 0 2.957 3.333l1.029 12.325h24.029l1.029-12.325a3.362 3.362 0 0 0 2.957-3.333z"/></symbol><symbol id="icon-pacman" viewBox="0 0 32 32"><path d="M30.148 5.588A15.964 15.964 0 0 0 18 0C9.163 0 2 7.163 2 16s7.163 16 16 16c4.86 0 9.213-2.167 12.148-5.588L20 16 30.148 5.588zM22 3.769a2.231 2.231 0 1 1 0 4.462 2.231 2.231 0 0 1 0-4.462z"/></symbol><symbol id="icon-lock" viewBox="0 0 32 32"><path d="M18.5 14H18V8c0-3.308-2.692-6-6-6H8C4.692 2 2 4.692 2 8v6h-.5c-.825 0-1.5.675-1.5 1.5v15c0 .825.675 1.5 1.5 1.5h17c.825 0 1.5-.675 1.5-1.5v-15c0-.825-.675-1.5-1.5-1.5zM6 8c0-1.103.897-2 2-2h4c1.103 0 2 .897 2 2v6H6V8z"/></symbol><symbol id="icon-unlocked" viewBox="0 0 32 32"><path d="M24 2c3.308 0 6 2.692 6 6v6h-4V8c0-1.103-.897-2-2-2h-4c-1.103 0-2 .897-2 2v6h.5c.825 0 1.5.675 1.5 1.5v15c0 .825-.675 1.5-1.5 1.5h-17C.675 32 0 31.325 0 30.5v-15c0-.825.675-1.5 1.5-1.5H14V8c0-3.308 2.692-6 6-6h4z"/></symbol><symbol id="icon-star-full" viewBox="0 0 32 32"><path d="m32 12.408-11.056-1.607L16 .783l-4.944 10.018L0 12.408l8 7.798-1.889 11.011L16 26.018l9.889 5.199L24 20.206l8-7.798z"/></symbol><symbol id="icon-cross" viewBox="0 0 32 32"><path d="M31.708 25.708 22 16l9.708-9.708a1 1 0 0 0 0-1.414L27.122.292a1 1 0 0 0-1.414-.001L16 9.999 6.292.291a.998.998 0 0 0-1.414.001L.292 4.878a1 1 0 0 0 0 1.414L10 16 .292 25.708a.999.999 0 0 0 0 1.414l4.586 4.586a1 1 0 0 0 1.414 0L16 22l9.708 9.708a1 1 0 0 0 1.414 0l4.586-4.586a.999.999 0 0 0 0-1.414z"/></symbol><symbol id="icon-google" viewBox="0 0 32 32"><path d="M16.319 13.713V19.2h9.075c-.369 2.356-2.744 6.9-9.075 6.9C10.856 26.1 6.4 21.575 6.4 16s4.456-10.1 9.919-10.1c3.106 0 5.188 1.325 6.375 2.469l4.344-4.181C24.25 1.576 20.638 0 16.319 0c-8.844 0-16 7.156-16 16s7.156 16 16 16c9.231 0 15.363-6.494 15.363-15.631 0-1.05-.113-1.85-.25-2.65l-15.113-.006z"/></symbol></defs></svg>