<svg aria-hidden="true" style="width:0;height:0;position:absolute;overflow:hidden" xmlns="http://www.w3.org/2000/svg"><defs><symbol id="icon-up-arrow" viewBox="0 0 32 32"><path d="m23.943 8.507-5.534-6.408a.613.613 0 0 0-.898 0l-5.534 6.408a.59.59 0 0 0 .449.98h4.975v21.327H9.099V26.07a.593.593 0 0 0-1.186 0V32h10.673V9.487h4.907a.593.593 0 0 0 .449-.98zm-5.849-.205c-.034-.006-.065-.02-.1-.02s-.067.014-.101.02h-4.171l4.239-4.908L22.2 8.302h-4.105zM13.25 0h9.487v1.186H13.25V0z"/></symbol><symbol id="icon-crown" viewBox="0 0 32 32"><path d="M32 14.38c0-1.851-1.506-3.358-3.358-3.358s-3.358 1.506-3.358 3.358c0 .842.312 1.612.826 2.202l-3.471 3.184-4.427-9.148 2.587-3.039-4.783-5.618-4.783 5.618 2.472 2.904-4.395 9.231-3.422-3.134c.513-.59.825-1.359.825-2.2 0-1.851-1.506-3.358-3.358-3.358S-.003 12.528-.003 14.38a3.363 3.363 0 0 0 2.957 3.333l1.029 12.325h24.029l1.029-12.325a3.362 3.362 0 0 0 2.957-3.333z"/></symbol><symbol id="icon-email" viewBox="0 0 32 32"><path d="M29.002 4H2.999a3 3 0 0 0-3 3v18a3 3 0 0 0 3 3h26.003a3 3 0 0 0 3-3V7a3 3 0 0 0-3-3zm2 20.555-9.459-9.459 9.459-6.028v15.487zM2.998 5h26.003c1.103 0 2 .897 2 2v.883l-13.768 8.774a2.203 2.203 0 0 1-2.425-.035L.997 7.235V7c0-1.103.897-2 2-2zm-2 3.443 9.593 6.52-9.593 9.593V8.443zM29.002 27H2.999a2.002 2.002 0 0 1-1.838-1.214l10.26-10.26 2.827 1.922a3.199 3.199 0 0 0 3.523.052l2.921-1.861L30.84 25.787a2.002 2.002 0 0 1-1.838 1.214z"/></symbol></defs></svg>