<?xml version="1.0" encoding="iso-8859-1"?>
<!-- Generator: Adobe Illustrator 19.0.0, SVG Export Plug-In . SVG Version: 6.00 Build 0)  -->
<svg version="1.1" id="Capa_1" xmlns="http://www.w3.org/2000/svg" xmlns:xlink="http://www.w3.org/1999/xlink" x="0px" y="0px"
	 viewBox="0 0 53.966 53.966" style="enable-background:new 0 0 53.966 53.966;" xml:space="preserve">
<g>
	<g>
		<path d="M40.378,14.346L31.045,3.539c-0.381-0.44-1.133-0.44-1.514,0l-9.333,10.807c-0.256,0.296-0.315,0.714-0.152,1.07
			C20.209,15.772,20.563,16,20.955,16h8.39v35.966h-14v-8c0-0.552-0.447-1-1-1s-1,0.448-1,1v10h18V16h8.276
			c0.392,0,0.746-0.228,0.909-0.584C40.693,15.061,40.634,14.643,40.378,14.346z M30.514,14c-0.057-0.01-0.109-0.034-0.169-0.034
			S30.232,13.99,30.175,14H23.14l7.148-8.277L37.436,14H30.514z"/>
		<rect x="22.345" width="16" height="2"/>
	</g>
</g>
<g>
</g>
<g>
</g>
<g>
</g>
<g>
</g>
<g>
</g>
<g>
</g>
<g>
</g>
<g>
</g>
<g>
</g>
<g>
</g>
<g>
</g>
<g>
</g>
<g>
</g>
<g>
</g>
<g>
</g>
</svg>
